<svg xmlns="http://www.w3.org/2000/svg" xmlns:xlink="http://www.w3.org/1999/xlink" width="48" height="47" viewBox="0 0 48 47"><defs><style>.a{fill:url(#a);}.b{fill:#fff;}</style><linearGradient id="a" x1="0.5" y1="1" x2="0.5" gradientUnits="objectBoundingBox"><stop offset="0" stop-color="#ff3e8f"/><stop offset="1" stop-color="#ffba8f"/></linearGradient></defs><g transform="translate(2446 -1323)"><rect class="a" width="48" height="47" rx="3" transform="translate(-2446 1323)"/><g transform="translate(-2458.561 1377.435)"><g transform="translate(17.828 -46.881)"><path class="b" d="M34.668-22.87H23.5l-5.671,8.657H33.7Z" transform="translate(-17.828 43.879)"/><path class="b" d="M44.56-30.434H40.523l.5,4.5h5.548a.607.607,0,0,1-.592-.614v-.02A5.979,5.979,0,0,0,44.56-30.434Z" transform="translate(-20.665 44.825)"/><path class="b" d="M32.494-30.434h-3.65l-2.946,4.5H35.915l.5-4.5H33.841a7.651,7.651,0,0,0-.086.852v.026a.606.606,0,0,1-.605.586h-.015a.607.607,0,0,1-.592-.614v-.026A6.749,6.749,0,0,0,32.494-30.434Z" transform="translate(-18.837 44.825)"/><path class="b" d="M49.189-29.856a5.366,5.366,0,0,0-.357.572,6.855,6.855,0,0,0-.769,2.813v.019h0a.607.607,0,0,1-.606.586H51.8Z" transform="translate(-21.532 44.752)"/><path class="b" d="M41.369-22.87l.969,8.657H58.1L52.433-22.87Z" transform="translate(-20.771 43.879)"/><path class="b" d="M40.7-39.256c-7.506,0-7.607-7.625-7.607-7.625,0,7.415-7.624,7.625-7.624,7.625,6.239.01,7.377,4.776,7.581,6.766a7.138,7.138,0,0,1,.043.837,7.879,7.879,0,0,1,.08-.837c.285-1.991,1.592-6.757,7.544-6.766Z" transform="translate(-18.784 46.881)"/><path class="b" d="M52.529-33.619c-5.842,0-5.921-5.935-5.921-5.935,0,5.772-5.934,5.935-5.934,5.935a5.532,5.532,0,0,1,4.7,2.045A6.745,6.745,0,0,1,46.609-27.7a7.281,7.281,0,0,1,1.365-3.874,5.425,5.425,0,0,1,4.569-2.045Z" transform="translate(-20.684 45.965)"/></g></g></g></svg>