<svg xmlns="http://www.w3.org/2000/svg" xmlns:xlink="http://www.w3.org/1999/xlink" width="47" height="47" viewBox="0 0 47 47"><defs><style>.a{fill:url(#a);}.b{fill:#fff;}</style><linearGradient id="a" x1="0.5" y1="1" x2="0.521" y2="-0.384" gradientUnits="objectBoundingBox"><stop offset="0" stop-color="#9164ff"/><stop offset="1" stop-color="#8bfff4"/></linearGradient></defs><g transform="translate(2388 -1380)"><rect class="a" width="47" height="47" rx="3" transform="translate(-2388 1380)"/><g transform="translate(-2455.654 1478.889)"><g transform="translate(74.842 -92.416)"><path class="b" d="M96.25-73.862v5.987a.6.6,0,0,0,.6.6h8.98V-74.46h-8.98A.6.6,0,0,0,96.25-73.862Z" transform="translate(-77.692 90.026)"/><path class="b" d="M89.208-74.46h-4.79a.6.6,0,0,0-.6.6v11.374h5.987V-73.862A.6.6,0,0,0,89.208-74.46Z" transform="translate(-76.037 90.026)"/><path class="b" d="M112.134-71.1v10.775a.6.6,0,0,0,.6.6h.6V-71.7h-.6A.6.6,0,0,0,112.134-71.1Z" transform="translate(-79.806 89.658)"/><path class="b" d="M107.768-75.842h-3.591v16.164a.6.6,0,0,1-.6.6H79.631a.6.6,0,0,1-.6-.6V-75.842H75.44a.6.6,0,0,0-.6.6v17.96a.6.6,0,0,0,.6.6h32.328a.6.6,0,0,0,.6-.6v-1.8h-.6a1.8,1.8,0,0,1-1.8-1.8V-71.651a1.8,1.8,0,0,1,1.8-1.8h.6v-1.8A.6.6,0,0,0,107.768-75.842Z" transform="translate(-74.842 90.21)"/><path class="b" d="M81.057-59.267h22.75v1.2H81.057Z" transform="translate(-75.669 88.003)"/><path class="b" d="M112.339-87.626l-1.916-4.79h-3.579l1.436,4.79Z" transform="translate(-79.102 92.416)"/><path class="b" d="M94.629-92.416H93.216l-.958,4.79h3.329Z" transform="translate(-77.16 92.416)"/><path class="b" d="M106.3-87.626l-1.437-4.79h-3.544l1.436,4.79Z" transform="translate(-78.367 92.416)"/><path class="b" d="M80.669-92.416h-3.58l-1.916,4.79h4.059Z" transform="translate(-74.886 92.416)"/><path class="b" d="M84.836-87.626l1.436-4.79H82.728l-1.436,4.79Z" transform="translate(-75.701 92.416)"/><path class="b" d="M77.328-80.72a1.8,1.8,0,0,0,1.8-1.8V-85.51H75.532v2.993A1.8,1.8,0,0,0,77.328-80.72Z" transform="translate(-74.934 91.497)"/><path class="b" d="M93.9-80.72a1.8,1.8,0,0,0,1.8-1.8V-85.51H92.106v2.993A1.8,1.8,0,0,0,93.9-80.72Z" transform="translate(-77.14 91.497)"/><path class="b" d="M90.313-87.626l.958-4.79H88.253l-1.437,4.79Z" transform="translate(-76.436 92.416)"/><path class="b" d="M110.476-80.72a1.8,1.8,0,0,0,1.8-1.8V-85.51h-3.591v2.993A1.8,1.8,0,0,0,110.476-80.72Z" transform="translate(-79.347 91.497)"/><path class="b" d="M84.648-82.517V-85.51H81.057v2.993a1.8,1.8,0,0,0,1.8,1.8A1.8,1.8,0,0,0,84.648-82.517Z" transform="translate(-75.669 91.497)"/><path class="b" d="M100.856-87.626l-1.436-4.79H96.4l.958,4.79Z" transform="translate(-77.712 92.416)"/><path class="b" d="M90.174-82.517V-85.51H86.582v2.993a1.8,1.8,0,0,0,1.8,1.8A1.8,1.8,0,0,0,90.174-82.517Z" transform="translate(-76.405 91.497)"/><path class="b" d="M101.223-82.517V-85.51H97.631v2.993a1.8,1.8,0,0,0,1.8,1.8A1.8,1.8,0,0,0,101.223-82.517Z" transform="translate(-77.876 91.497)"/><path class="b" d="M106.748-85.51h-3.592v2.993a1.8,1.8,0,0,0,1.8,1.8,1.8,1.8,0,0,0,1.8-1.8Z" transform="translate(-78.611 91.497)"/><path class="b" d="M103.807-79.407a2.95,2.95,0,0,1-1.8.616,2.99,2.99,0,0,1-2.4-1.215,2.967,2.967,0,0,1-4.146.643,2.955,2.955,0,0,1-.642-.643,2.968,2.968,0,0,1-4.147.643,2.974,2.974,0,0,1-.642-.643,2.967,2.967,0,0,1-4.146.643,2.978,2.978,0,0,1-.643-.643,2.989,2.989,0,0,1-2.394,1.215,2.948,2.948,0,0,1-1.8-.616v16.181h1.2V-74.6a1.8,1.8,0,0,1,1.8-1.8h4.79a1.8,1.8,0,0,1,1.8,1.8v11.374h13.171v-3.592h-8.98a1.8,1.8,0,0,1-1.8-1.8V-74.6a1.8,1.8,0,0,1,1.8-1.8h8.98Z" transform="translate(-75.669 90.764)"/></g></g></g></svg>